<svg width="15" height="16" viewBox="0 0 15 16" fill="none" xmlns="http://www.w3.org/2000/svg">
<path fill-rule="evenodd" clip-rule="evenodd" d="M4.95286 15.7333C4.95286 15.7333 0 15.1963 0 10.9971C0 6.79791 2.53581 5.06667 4.64504 4.0128C6.75427 2.95893 7.08326 0 7.08326 0C7.08326 0 10.3801 1.85876 10.8542 4.18686C11.3283 6.51497 9.89102 8.44444 9.89102 8.44444C9.89102 8.44444 11.4796 8.32292 12.1577 7.16771C12.8358 6.0125 12.9889 5.06667 12.9889 5.06667C12.9889 5.06667 16.068 9.80043 14.4328 12.2156C12.7976 14.6307 10.3751 16 10.3751 16C10.3751 16 7.43432 14.6768 6.70687 13.1947C5.97941 11.7126 6.50234 9.6 6.50234 9.6C6.50234 9.6 4.09996 10.3661 3.72077 12.2156C3.34158 14.065 4.95286 15.7333 4.95286 15.7333Z" fill="#C3CAD9"/>
</svg>
