<svg width="18" height="10" viewBox="0 0 18 10" fill="none" xmlns="http://www.w3.org/2000/svg">
<path fill-rule="evenodd" clip-rule="evenodd" d="M1 2C1.55 2 2 1.55 2 1C2 0.45 1.55 0 1 0C0.45 0 0 0.45 0 1C0 1.55 0.45 2 1 2ZM2 5C2 5.55 1.55 6 1 6C0.45 6 0 5.55 0 5C0 4.45 0.45 4 1 4C1.55 4 2 4.45 2 5ZM2 9C2 9.55 1.55 10 1 10C0.45 10 0 9.55 0 9C0 8.45 0.45 8 1 8C1.55 8 2 8.45 2 9ZM18 5C18 5.55 17.55 6 17 6H5C4.45 6 4 5.55 4 5C4 4.45 4.45 4 5 4H17C17.55 4 18 4.45 18 5ZM17 10C17.55 10 18 9.55 18 9C18 8.45 17.55 8 17 8H5C4.45 8 4 8.45 4 9C4 9.55 4.45 10 5 10H17ZM5 2C4.45 2 4 1.55 4 1C4 0.45 4.45 0 5 0H17C17.55 0 18 0.45 18 1C18 1.55 17.55 2 17 2H5Z" fill="#C3CAD9"/>
</svg>
