<svg width="23" height="20" viewBox="0 0 23 20" fill="none" xmlns="http://www.w3.org/2000/svg">
<path fill-rule="evenodd" clip-rule="evenodd" d="M12.12 0.443758L6.58 5.98376C6.21 6.35376 6 6.86376 6 7.39376V17.3838C6 18.4838 6.9 19.3838 8 19.3838H17C17.8 19.3838 18.52 18.9038 18.84 18.1738L22.1 10.5638C22.94 8.58376 21.49 6.38376 19.34 6.38376H13.69L14.64 1.80376C14.74 1.30376 14.59 0.793758 14.23 0.433758C13.64 -0.146242 12.7 -0.146242 12.12 0.443758ZM2 19.3838C3.1 19.3838 4 18.4838 4 17.3838V9.38376C4 8.28376 3.1 7.38376 2 7.38376C0.9 7.38376 0 8.28376 0 9.38376V17.3838C0 18.4838 0.9 19.3838 2 19.3838Z" fill="#C3CAD9"/>
</svg>
