<svg width="16" height="16" viewBox="0 0 16 16" fill="none" xmlns="http://www.w3.org/2000/svg">
<path fill-rule="evenodd" clip-rule="evenodd" d="M1 8.59249H12.17L7.29 13.4725C6.9 13.8625 6.9 14.5025 7.29 14.8925C7.68 15.2825 8.31 15.2825 8.7 14.8925L15.29 8.30249C15.68 7.91249 15.68 7.28249 15.29 6.89249L8.71 0.292486C8.52317 0.105233 8.26952 0 8.005 0C7.74048 0 7.48683 0.105233 7.3 0.292486C6.91 0.682486 6.91 1.31249 7.3 1.70249L12.17 6.59249H1C0.45 6.59249 0 7.04249 0 7.59249C0 8.14249 0.45 8.59249 1 8.59249Z" fill="#C3CAD9"/>
<mask id="mask0_14_481" style="mask-type:alpha" maskUnits="userSpaceOnUse" x="0" y="0" width="16" height="16">
<path fill-rule="evenodd" clip-rule="evenodd" d="M1 8.59249H12.17L7.29 13.4725C6.9 13.8625 6.9 14.5025 7.29 14.8925C7.68 15.2825 8.31 15.2825 8.7 14.8925L15.29 8.30249C15.68 7.91249 15.68 7.28249 15.29 6.89249L8.71 0.292486C8.52317 0.105233 8.26952 0 8.005 0C7.74048 0 7.48683 0.105233 7.3 0.292486C6.91 0.682486 6.91 1.31249 7.3 1.70249L12.17 6.59249H1C0.45 6.59249 0 7.04249 0 7.59249C0 8.14249 0.45 8.59249 1 8.59249Z" fill="white"/>
</mask>
<g mask="url(#mask0_14_481)">
</g>
</svg>
