<svg width="17" height="15" viewBox="0 0 17 15" fill="none" xmlns="http://www.w3.org/2000/svg">
<path fill-rule="evenodd" clip-rule="evenodd" d="M14.1313 1.3925C12.0193 -0.0475012 9.4113 0.624499 8.0033 2.2725C6.5953 0.624499 3.9873 -0.0555011 1.8753 1.3925C0.755296 2.1605 0.0512956 3.4565 0.00329558 4.8245C-0.108704 7.9285 2.6433 10.4165 6.8433 14.2325L6.9233 14.3045C7.5313 14.8565 8.4673 14.8565 9.0753 14.2965L9.1633 14.2165C13.3633 10.4085 16.1073 7.9205 16.0033 4.8165C15.9553 3.4565 15.2513 2.1605 14.1313 1.3925ZM8.0833 13.0405L8.0033 13.1205L7.9233 13.0405C4.1153 9.5925 1.6033 7.3125 1.6033 5.0005C1.6033 3.4005 2.8033 2.2005 4.4033 2.2005C5.6353 2.2005 6.8353 2.9925 7.2593 4.0885H8.7553C9.1713 2.9925 10.3713 2.2005 11.6033 2.2005C13.2033 2.2005 14.4033 3.4005 14.4033 5.0005C14.4033 7.3125 11.8913 9.5925 8.0833 13.0405Z" fill="white"/>
</svg>
