<svg width="21" height="18" viewBox="0 0 21 18" fill="none" xmlns="http://www.w3.org/2000/svg">
<g clip-path="url(#clip0_0_2977)">
<path fill-rule="evenodd" clip-rule="evenodd" d="M2.9075 9.9V12.71C2.9075 13.44 3.3075 14.12 3.9475 14.47L8.9475 17.2C9.5475 17.53 10.2675 17.53 10.8675 17.2L15.8675 14.47C16.5075 14.12 16.9075 13.44 16.9075 12.71V9.9L10.8675 13.2C10.2675 13.53 9.5475 13.53 8.9475 13.2L2.9075 9.9ZM8.9475 0.24L0.5175 4.84C-0.1725 5.22 -0.1725 6.22 0.5175 6.6L8.9475 11.2C9.5475 11.53 10.2675 11.53 10.8675 11.2L18.9075 6.81V12.72C18.9075 13.27 19.3575 13.72 19.9075 13.72C20.4575 13.72 20.9075 13.27 20.9075 12.72V6.31C20.9075 5.94 20.7075 5.61 20.3875 5.43L10.8675 0.24C10.2675 -0.08 9.5475 -0.08 8.9475 0.24Z" fill="#C3CAD9"/>
</g>
<defs>
<clipPath id="clip0_0_2977">
<rect width="21" height="18" fill="white"/>
</clipPath>
</defs>
</svg>
