<?xml version="1.0" ?><!DOCTYPE svg  PUBLIC '-//W3C//DTD SVG 1.1//EN'  'http://www.w3.org/Graphics/SVG/1.1/DTD/svg11.dtd'><svg enable-background="new 0 0 128 128" id="Layer_1" version="1.1" viewBox="0 0 128 128" xml:space="preserve" xmlns="http://www.w3.org/2000/svg" xmlns:xlink="http://www.w3.org/1999/xlink"><circle cx="64" cy="64" fill="#4B5F83" id="circle" r="64"/><g id="icon"><path d="M78.9,43c-0.5-8-7-14.4-14.9-14.4c-7.9,0-14.3,5.9-14.9,13.6c0,0.2-0.1,0.2-0.1,0.4   c0,0.1,0,0.1,0,0.2c0,0.1,0,0.2,0,0.2h0c0.2,1,1,1.6,2,1.6s1.8-0.6,2-1.6h0c0.2-6,5-10.5,11-10.5s11,4.7,11,10.7V59h4L78.9,43   L78.9,43z" fill="#E67E22" id="unlock"/><path d="M64,49.3c13.8,0,25,11.2,25,25s-11.2,25-25,25" fill="#E6E6E6" id="right"/><path d="M64,99.3c-13.8,0-25-11.2-25-25s11.2-25,25-25" fill="#FFFFFF" id="left"/><path d="M64,80.3L64,80.3c-1.1,0-2-0.9-2-2v-8c0-1.1,0.9-2,2-2h0c1.1,0,2,0.9,2,2v8   C66,79.4,65.1,80.3,64,80.3z" fill="#22313F" id="hole"/></g></svg>