<svg width="95" height="15" viewBox="0 0 95 15" fill="none" xmlns="http://www.w3.org/2000/svg">
<path fill-rule="evenodd" clip-rule="evenodd" d="M7.1308 12.248L10.5891 14.3396C11.2225 14.723 11.9975 14.1563 11.8308 13.4396L10.9141 9.50629L13.9725 6.85629C14.5308 6.37296 14.2308 5.45629 13.4975 5.39796L9.47246 5.05629L7.89746 1.33962C7.61413 0.664624 6.64746 0.664624 6.36413 1.33962L4.78913 5.04796L0.764131 5.38962C0.0307978 5.44796 -0.269202 6.36462 0.289131 6.84796L3.34746 9.49796L2.4308 13.4313C2.26413 14.148 3.03913 14.7146 3.67246 14.3313L7.1308 12.248Z" fill="#FFCB33"/>
<path fill-rule="evenodd" clip-rule="evenodd" d="M27.1308 12.248L30.5891 14.3396C31.2225 14.723 31.9975 14.1563 31.8308 13.4396L30.9141 9.50629L33.9725 6.85629C34.5308 6.37296 34.2308 5.45629 33.4975 5.39796L29.4725 5.05629L27.8975 1.33962C27.6141 0.664624 26.6475 0.664624 26.3641 1.33962L24.7891 5.04796L20.7641 5.38962C20.0308 5.44796 19.7308 6.36462 20.2891 6.84796L23.3475 9.49796L22.4308 13.4313C22.2641 14.148 23.0391 14.7146 23.6725 14.3313L27.1308 12.248Z" fill="#FFCB33"/>
<path fill-rule="evenodd" clip-rule="evenodd" d="M47.1308 12.248L50.5891 14.3396C51.2225 14.723 51.9975 14.1563 51.8308 13.4396L50.9141 9.50629L53.9725 6.85629C54.5308 6.37296 54.2308 5.45629 53.4975 5.39796L49.4725 5.05629L47.8975 1.33962C47.6141 0.664624 46.6475 0.664624 46.3641 1.33962L44.7891 5.04796L40.7641 5.38962C40.0308 5.44796 39.7308 6.36462 40.2891 6.84796L43.3475 9.49796L42.4308 13.4313C42.2641 14.148 43.0391 14.7146 43.6725 14.3313L47.1308 12.248Z" fill="#FFCB33"/>
<path fill-rule="evenodd" clip-rule="evenodd" d="M67.1308 12.248L70.5891 14.3396C71.2225 14.723 71.9975 14.1563 71.8308 13.4396L70.9141 9.50629L73.9725 6.85629C74.5308 6.37296 74.2308 5.45629 73.4975 5.39796L69.4725 5.05629L67.8975 1.33962C67.6141 0.664624 66.6475 0.664624 66.3641 1.33962L64.7891 5.04796L60.7641 5.38962C60.0308 5.44796 59.7308 6.36462 60.2891 6.84796L63.3475 9.49796L62.4308 13.4313C62.2641 14.148 63.0391 14.7146 63.6725 14.3313L67.1308 12.248Z" fill="#FFCB33"/>
<path fill-rule="evenodd" clip-rule="evenodd" d="M87.1308 12.248L90.5891 14.3396C91.2225 14.723 91.9975 14.1563 91.8308 13.4396L90.9141 9.50629L93.9725 6.85629C94.5308 6.37296 94.2308 5.45629 93.4975 5.39796L89.4725 5.05629L87.8975 1.33962C87.6141 0.664624 86.6475 0.664624 86.3641 1.33962L84.7891 5.04796L80.7641 5.38962C80.0308 5.44796 79.7308 6.36462 80.2891 6.84796L83.3475 9.49796L82.4308 13.4313C82.2641 14.148 83.0391 14.7146 83.6725 14.3313L87.1308 12.248Z" fill="#FFCB33"/>
</svg>
