<svg width="14" height="17" viewBox="0 0 14 17" fill="none" xmlns="http://www.w3.org/2000/svg">
<path fill-rule="evenodd" clip-rule="evenodd" d="M5 12.5925H9C9.55 12.5925 10 12.1425 10 11.5925V6.59249H11.59C12.48 6.59249 12.93 5.51249 12.3 4.88249L7.71 0.292486C7.52317 0.105233 7.26952 0 7.005 0C6.74048 0 6.48683 0.105233 6.3 0.292486L1.71 4.88249C1.08 5.51249 1.52 6.59249 2.41 6.59249H4V11.5925C4 12.1425 4.45 12.5925 5 12.5925ZM1 14.5925H13C13.55 14.5925 14 15.0425 14 15.5925C14 16.1425 13.55 16.5925 13 16.5925H1C0.45 16.5925 0 16.1425 0 15.5925C0 15.0425 0.45 14.5925 1 14.5925Z" fill="#3361FF"/>
</svg>
