<svg width="96" height="20" viewBox="0 0 96 20" fill="none" xmlns="http://www.w3.org/2000/svg">
<path fill-rule="evenodd" clip-rule="evenodd" d="M50.9187 9.8168C50.1078 9.8168 49.5232 10.0827 48.9305 10.3536V16.4836C49.4982 16.5377 49.8237 16.5377 50.3623 16.5377C52.3087 16.5377 52.5755 15.6463 52.5755 14.4018V11.4741C52.5755 10.555 52.2705 9.8168 50.9187 9.8168ZM37.9923 9.48225C36.6419 9.48225 36.3337 10.2236 36.3337 11.1418V11.6577H39.6491V11.1418C39.6491 10.2236 39.341 9.48225 37.9923 9.48225ZM12.9514 15.8627C12.9514 16.5891 13.2941 16.9663 14.0505 16.9663C14.8619 16.9663 15.3423 16.7018 15.9346 16.43V14.9759H14.1605C13.3205 14.9759 12.9514 15.1323 12.9514 15.8627ZM63.4928 9.8168C62.14 9.8168 61.6714 10.555 61.6714 11.4741V14.8282C61.6714 15.7495 62.14 16.49 63.4928 16.49C64.8419 16.49 65.3141 15.7495 65.3141 14.8282V11.4741C65.3137 10.555 64.8414 9.8168 63.4928 9.8168ZM6.32231 19.6236H2.34595V9.99907H0.359131V6.68271H2.3464V4.69089C2.3464 1.98498 3.46777 0.376343 6.65504 0.376343H9.30868V3.69362H7.65004C6.40913 3.69362 6.32731 4.15725 6.32731 5.02225L6.32231 6.68225H9.32686L8.97549 9.99862H6.32231V19.6236ZM19.9119 19.6486H16.5978L16.4546 18.8104C14.9414 19.6486 13.5909 19.7845 12.7 19.7845C10.2696 19.7845 8.97595 18.1609 8.97595 15.9154C8.97595 13.2663 10.4855 12.3209 13.1859 12.3209H15.9346V11.7482C15.9346 10.3959 15.7796 9.99907 13.7 9.99907H10.3L10.6323 6.68271H14.3487C18.9114 6.68271 19.9119 8.12407 19.9119 11.775V19.6486ZM31.1814 10.2423C29.1191 9.88862 28.5269 9.81089 27.5346 9.81089C25.7523 9.81089 25.2137 10.2041 25.2137 11.7177V14.5809C25.2137 16.0945 25.7523 16.4895 27.5346 16.4895C28.5269 16.4895 29.1191 16.4104 31.1814 16.0554V19.2904C29.375 19.6954 28.1982 19.8018 27.2037 19.8018C22.9346 19.8018 21.2378 17.5568 21.2378 14.3136V11.9904C21.2378 8.74452 22.9346 6.49543 27.2037 6.49543C28.1982 6.49543 29.375 6.60225 31.1814 7.00907V10.2423ZM43.625 14.3136H36.3332V14.5809C36.3332 16.0945 36.8723 16.4895 38.6541 16.4895C40.256 16.4895 41.2337 16.4104 43.2923 16.0554V19.2904C41.3069 19.6954 40.2723 19.8018 38.3246 19.8018C34.055 19.8018 32.3573 17.5568 32.3573 14.3136V11.6573C32.3573 8.81952 33.6169 6.49543 37.9919 6.49543C42.3669 6.49543 43.625 8.79271 43.625 11.6573V14.3136ZM56.5509 14.375C56.5509 17.5095 55.655 19.7959 50.2278 19.7959C48.2678 19.7959 47.1182 19.6236 44.955 19.2909V1.37271L48.93 0.709525V6.97725C49.7891 6.65816 50.9009 6.49589 51.9128 6.49589C55.8882 6.49589 56.5505 8.27816 56.5505 11.1423V14.375H56.5509ZM69.2932 14.4432C69.2932 17.1473 68.1769 19.77 63.506 19.77C58.8328 19.77 57.6955 17.1473 57.6955 14.4432V11.8323C57.6955 9.1268 58.8328 6.50362 63.506 6.50362C68.1769 6.50362 69.2932 9.1268 69.2932 11.8323V14.4432ZM82.0269 14.4432C82.0269 17.1473 80.9091 19.77 76.2391 19.77C71.5659 19.77 70.4287 17.1473 70.4287 14.4432V11.8323C70.4287 9.1268 71.5659 6.50362 76.2391 6.50362C80.9091 6.50362 82.0269 9.1268 82.0269 11.8323V14.4432ZM95.0946 19.6236H90.7859L87.1419 13.5404V19.6236H83.1655V1.37225L87.1419 0.70907V12.4586L90.7859 6.68271H95.0946L91.1164 12.9859L95.0946 19.6236ZM76.2255 9.8168C74.875 9.8168 74.4064 10.555 74.4064 11.4741V14.8282C74.4064 15.7495 74.875 16.49 76.2255 16.49C77.5741 16.49 78.0514 15.7495 78.0514 14.8282V11.4741C78.0514 10.555 77.5741 9.8168 76.2255 9.8168Z" fill="#DADEE6"/>
</svg>
