<svg width="20" height="20" viewBox="0 0 20 20" fill="none" xmlns="http://www.w3.org/2000/svg">
<path fill-rule="evenodd" clip-rule="evenodd" d="M10.0001 8.97329C9.43075 8.97329 8.97341 9.43063 8.97341 9.99996C8.97341 10.5693 9.43075 11.0266 10.0001 11.0266C10.5694 11.0266 11.0267 10.5693 11.0267 9.99996C11.0267 9.43063 10.5694 8.97329 10.0001 8.97329ZM10.0001 0.666626C4.84808 0.666626 0.666748 4.84796 0.666748 9.99996C0.666748 15.152 4.84808 19.3333 10.0001 19.3333C15.1521 19.3333 19.3334 15.152 19.3334 9.99996C19.3334 4.84796 15.1521 0.666626 10.0001 0.666626ZM12.0441 12.044L4.40008 15.6L7.95608 7.95596L15.6001 4.39996L12.0441 12.044Z" fill="#C3CAD9"/>
<mask id="mask0_14_1148" style="mask-type:alpha" maskUnits="userSpaceOnUse" x="0" y="0" width="20" height="20">
<path fill-rule="evenodd" clip-rule="evenodd" d="M10.0001 8.97329C9.43075 8.97329 8.97341 9.43063 8.97341 9.99996C8.97341 10.5693 9.43075 11.0266 10.0001 11.0266C10.5694 11.0266 11.0267 10.5693 11.0267 9.99996C11.0267 9.43063 10.5694 8.97329 10.0001 8.97329ZM10.0001 0.666626C4.84808 0.666626 0.666748 4.84796 0.666748 9.99996C0.666748 15.152 4.84808 19.3333 10.0001 19.3333C15.1521 19.3333 19.3334 15.152 19.3334 9.99996C19.3334 4.84796 15.1521 0.666626 10.0001 0.666626ZM12.0441 12.044L4.40008 15.6L7.95608 7.95596L15.6001 4.39996L12.0441 12.044Z" fill="white"/>
</mask>
<g mask="url(#mask0_14_1148)">
</g>
</svg>
