<svg width="117" height="25" viewBox="0 0 117 25" fill="none" xmlns="http://www.w3.org/2000/svg">
<path fill-rule="evenodd" clip-rule="evenodd" d="M116.94 11.2939V9.23734H114.386V6.04017L114.3 6.06664L111.901 6.80058L111.854 6.81494V9.23746H108.068V7.88791C108.068 7.25952 108.208 6.77863 108.485 6.45793C108.76 6.14108 109.153 5.97999 109.655 5.97999C110.016 5.97999 110.389 6.06495 110.765 6.23248L110.859 6.27456V4.10872L110.815 4.09243C110.464 3.96642 109.987 3.90295 109.396 3.90295C108.651 3.90295 107.975 4.06506 107.384 4.38633C106.794 4.70804 106.329 5.16732 106.004 5.75126C105.679 6.33452 105.515 7.00816 105.515 7.75363V9.23734H103.737V11.2939H105.515V19.9578H108.068V11.2939H111.854V16.7997C111.854 19.0672 112.923 20.2163 115.033 20.2163C115.379 20.2163 115.744 20.1757 116.117 20.0962C116.496 20.0145 116.754 19.9329 116.906 19.8458L116.94 19.8259V17.7504L116.836 17.819C116.697 17.9113 116.525 17.9868 116.323 18.0429C116.119 18.1 115.95 18.1286 115.818 18.1286C115.324 18.1286 114.958 17.9955 114.732 17.7327C114.502 17.4675 114.386 17.0039 114.386 16.3552V11.2939H116.94ZM98.0356 18.129C97.1091 18.129 96.3785 17.8217 95.8637 17.2165C95.3457 16.6083 95.0833 15.7411 95.0833 14.6393C95.0833 13.5025 95.3457 12.6128 95.8639 11.9938C96.3791 11.3789 97.1026 11.0668 98.0148 11.0668C98.9 11.0668 99.6046 11.3648 100.109 11.9532C100.617 12.5446 100.874 13.4272 100.874 14.5772C100.874 15.7413 100.632 16.6355 100.155 17.2337C99.6805 17.8274 98.9677 18.129 98.0356 18.129ZM98.1491 8.97909C96.3813 8.97909 94.9773 9.49707 93.9761 10.5187C92.9757 11.5404 92.4684 12.9543 92.4684 14.7215C92.4684 16.4 92.9636 17.7501 93.9403 18.7337C94.917 19.7177 96.2462 20.2161 97.8906 20.2161C99.6042 20.2161 100.98 19.6908 101.981 18.6551C102.982 17.6205 103.488 16.2199 103.488 14.494C103.488 12.7893 103.013 11.4291 102.074 10.452C101.135 9.47456 99.8144 8.97909 98.1491 8.97909ZM88.3525 8.97909C87.15 8.97909 86.1553 9.28666 85.3955 9.89311C84.631 10.5032 84.2432 11.3033 84.2432 12.2715C84.2432 12.7748 84.3269 13.2218 84.4916 13.601C84.6574 13.9815 84.9138 14.3164 85.2545 14.5975C85.5927 14.8764 86.1146 15.1685 86.8062 15.4656C87.3877 15.7049 87.8213 15.9073 88.0967 16.0668C88.366 16.2231 88.557 16.3802 88.6649 16.5333C88.7698 16.683 88.823 16.888 88.823 17.141C88.823 17.8612 88.2836 18.2117 87.1738 18.2117C86.7621 18.2117 86.2925 18.1257 85.7782 17.9562C85.2675 17.7893 84.7854 17.5449 84.349 17.2316L84.243 17.1556V19.6134L84.2819 19.6315C84.6431 19.7982 85.0985 19.9388 85.6353 20.0494C86.1711 20.1602 86.6578 20.2165 87.0807 20.2165C88.3855 20.2165 89.4363 19.9075 90.2031 19.2974C90.9747 18.6832 91.3657 17.8642 91.3657 16.8625C91.3657 16.1398 91.1552 15.5201 90.7403 15.0204C90.3282 14.5247 89.6129 14.0696 88.6153 13.6673C87.8205 13.3483 87.3113 13.0835 87.1013 12.8802C86.8988 12.6838 86.7959 12.4061 86.7959 12.0544C86.7959 11.7427 86.9229 11.4929 87.1834 11.2906C87.4459 11.0873 87.8114 10.9839 88.2698 10.9839C88.6951 10.9839 89.1303 11.0511 89.5631 11.1828C89.9956 11.3145 90.3755 11.4909 90.6925 11.7066L90.7968 11.7778V9.44639L90.7568 9.4292C90.4643 9.30375 90.0785 9.19639 89.61 9.10929C89.1436 9.02275 88.7205 8.97909 88.3525 8.97909ZM77.5881 18.129C76.6618 18.129 75.931 17.8217 75.4163 17.2165C74.8982 16.6083 74.6362 15.7413 74.6362 14.6393C74.6362 13.5025 74.8985 12.6128 75.4169 11.9938C75.9316 11.3789 76.655 11.0668 77.5677 11.0668C78.4525 11.0668 79.1571 11.3648 79.662 11.9532C80.1694 12.5446 80.4267 13.4272 80.4267 14.5772C80.4267 15.7413 80.1845 16.6355 79.7071 17.2337C79.233 17.8274 78.5205 18.129 77.5881 18.129ZM77.7019 8.97909C75.9337 8.97909 74.5295 9.49707 73.529 10.5187C72.5285 11.5404 72.0209 12.9543 72.0209 14.7215C72.0209 16.4007 72.5164 17.7501 73.4931 18.7337C74.4698 19.7177 75.7989 20.2161 77.4433 20.2161C79.1567 20.2161 80.5332 19.6908 81.5338 18.6551C82.5342 17.6205 83.0413 16.2199 83.0413 14.494C83.0413 12.7893 82.5655 11.4291 81.6267 10.452C80.6875 9.47456 79.3669 8.97909 77.7019 8.97909ZM68.1458 11.0939V9.23734H65.6241V19.9576H68.1458V14.4738C68.1458 13.5413 68.3573 12.7752 68.7744 12.1966C69.1863 11.6249 69.7352 11.3352 70.4053 11.3352C70.6325 11.3352 70.8875 11.3726 71.1636 11.4467C71.4369 11.5204 71.6348 11.6004 71.7516 11.6845L71.8576 11.7613V9.21902L71.8167 9.20148C71.5819 9.10171 71.2497 9.05137 70.8293 9.05137C70.1956 9.05137 69.6285 9.25499 69.1428 9.6559C68.7164 10.0083 68.4083 10.4914 68.1726 11.0939H68.1458ZM61.1082 8.97909C59.9513 8.97909 58.9194 9.22716 58.0416 9.71619C57.1621 10.2063 56.4819 10.9061 56.0191 11.7959C55.5584 12.6836 55.3244 13.7205 55.3244 14.8768C55.3244 15.8897 55.5513 16.8192 55.9996 17.6385C56.4481 18.4591 57.0829 19.101 57.8865 19.5463C58.689 19.991 59.6165 20.2164 60.6434 20.2164C61.8419 20.2164 62.8651 19.9768 63.6854 19.5043L63.7186 19.4853V17.175L63.6126 17.2524C63.241 17.5231 62.8257 17.7392 62.3789 17.8948C61.9332 18.0504 61.5268 18.129 61.1705 18.129C60.181 18.129 59.3867 17.8194 58.8101 17.209C58.2322 16.5978 57.9393 15.7395 57.9393 14.6595C57.9393 13.5728 58.2448 12.6924 58.847 12.0429C59.4473 11.3953 60.2431 11.0668 61.2121 11.0668C62.041 11.0668 62.8487 11.3474 63.6128 11.9017L63.7186 11.9785V9.54424L63.6844 9.52501C63.3968 9.36404 63.0046 9.23112 62.5178 9.13033C62.0329 9.02976 61.5587 8.97909 61.1082 8.97909ZM53.5877 9.23746H51.066V19.9576H53.5877V9.23746ZM52.3526 4.6706C51.9376 4.6706 51.5756 4.81189 51.2782 5.09187C50.9795 5.37264 50.8281 5.72614 50.8281 6.14334C50.8281 6.55397 50.9777 6.90103 51.2735 7.17433C51.5674 7.44685 51.9306 7.58497 52.3527 7.58497C52.7748 7.58497 53.1393 7.44685 53.4367 7.17479C53.736 6.90103 53.8878 6.55409 53.8878 6.14334C53.8878 5.74074 53.7401 5.39085 53.449 5.10318C53.1582 4.81608 52.7892 4.6706 52.3526 4.6706ZM46.0608 8.44651V19.9576H48.6343V4.99877H45.0724L40.545 16.1097L36.1515 4.99877H32.4446V19.9575H34.863V8.44537H34.9461L39.5855 19.9576H41.4106L45.9777 8.44651H46.0608Z" fill="#DADEE6"/>
<path fill-rule="evenodd" clip-rule="evenodd" d="M11.8629 11.8629H0V0H11.8629V11.8629Z" fill="#DADEE6"/>
<path fill-rule="evenodd" clip-rule="evenodd" d="M24.9608 11.8629H13.0981V0H24.9608V11.8629Z" fill="#DADEE6"/>
<path fill-rule="evenodd" clip-rule="evenodd" d="M11.8626 24.9654H0V13.1027H11.8626V24.9654Z" fill="#DADEE6"/>
<path fill-rule="evenodd" clip-rule="evenodd" d="M24.9608 24.9654H13.0981V13.1027H24.9608V24.9654Z" fill="#DADEE6"/>
</svg>
