<svg width="74" height="20" viewBox="0 0 74 20" fill="none" xmlns="http://www.w3.org/2000/svg">
<path fill-rule="evenodd" clip-rule="evenodd" d="M62.8596 18.7167C63.8851 18.8161 64.9102 18.9229 65.9327 19.0333L68.1905 13.4585L70.3365 19.5476C71.4377 19.6855 72.5383 19.8303 73.6355 19.9815L69.8731 9.30383L73.6367 0.00976958H70.4492L70.4161 0.055425L68.3829 5.07629L66.5979 0.010506H63.4507L66.6998 9.23117L62.8598 18.7167H62.8596ZM60.4794 18.4982V0.00976958H57.3333V18.2388C58.3827 18.3198 59.4325 18.4067 60.4794 18.498V18.4982ZM36.8466 17.4644C37.6959 17.4644 38.5442 17.4707 39.391 17.4776V10.6853H43.1703V7.79278H39.3913V2.90569H43.744V0.00976958H36.2329V17.4668C36.4369 17.4668 36.6419 17.4636 36.8466 17.4644ZM27.0788 17.6411C28.1269 17.6038 29.176 17.5724 30.2266 17.5468V2.90619H33.1672V0.010506H24.1382V2.90619H27.0793V17.6411H27.0788ZM3.01792 19.5905V8.57555L6.743 19.1458C7.88856 19.0171 9.03584 18.8961 10.1863 18.7817V0.010015H7.16765V11.4197L3.14801 0.010015H0V19.9865H0.0189003C1.0162 19.8485 2.01694 19.7174 3.01792 19.5905ZM21.1046 2.90545V0.010015H13.5928V18.4688C16.092 18.253 18.5941 18.0721 21.0984 17.9261V15.0279C19.6463 15.1124 18.1971 15.2096 16.7514 15.3178V10.6865H20.5307V7.79229H16.7514V2.90545H21.1046ZM49.9789 14.8895V0.0090332H46.8191V17.6516C49.3326 17.7439 51.8363 17.8726 54.3316 18.0346V15.1347C52.8834 15.0412 51.4327 14.9599 49.9789 14.8892V14.8895Z" fill="#DADEE6"/>
</svg>
