<svg width="91" height="16" viewBox="0 0 91 16" fill="none" xmlns="http://www.w3.org/2000/svg">
<path fill-rule="evenodd" clip-rule="evenodd" d="M84.4364 3.34881C84.6003 3.12723 84.6817 2.97208 84.6817 2.83923C84.6817 2.61766 84.4912 2.52893 83.8919 2.52893H83.1787V0.623475H90.8985V2.52893H89.8842C88.7128 2.52893 88.4951 2.7059 86.8606 4.76651L82.3889 9.5956V12.5425C82.3889 13.2964 82.7695 13.5617 83.8594 13.5617H85.5477V15.4002H74.7351V13.5617H76.4233C77.5123 13.5617 77.8939 13.2964 77.8939 12.5425V9.5956L72.6269 3.76917C71.7566 2.75051 71.8769 2.52893 69.4536 2.52893V0.623475H79.232V2.52893H78.5358C77.8274 2.52893 77.5273 2.66178 77.5273 2.92747C77.5273 3.14954 77.745 3.32651 77.8812 3.50348L80.546 6.40772C80.8626 6.73693 81.249 6.7796 81.6097 6.36699L84.4364 3.34881ZM16.0015 0.62299H18.3603V5.93984H16.1819C15.9889 4.87705 15.3237 4.46348 14.7171 3.9059C13.6228 2.90032 11.2529 2.06299 9.25967 2.06299C6.68707 2.06299 4.51592 2.86105 4.51592 4.03438C4.51592 7.2916 19.2286 4.6996 19.2286 10.8581C19.2286 14.0703 16.0771 15.8647 10.4175 15.8647C8.45822 15.8647 5.49337 15.2567 3.74404 14.3277C3.19567 14.0111 2.96295 14.6274 2.86016 15.3997H0.441734V9.90541H2.62937C3.11179 11.3013 3.77652 11.5888 4.38792 12.143C5.44876 13.118 7.97386 13.8274 10.2895 13.8046C13.7809 13.7701 14.9814 13.007 14.9814 11.8991C14.9814 10.7917 13.794 10.5255 9.96804 9.92772L6.71955 9.39584C3.05361 8.84166 0.384521 8.02226 0.384521 5.09814C0.384521 2.06299 3.76101 0.157536 9.09967 0.157536C11.3494 0.157536 13.2316 0.458142 15.0381 1.47923C15.5385 1.80457 16.0078 1.84335 16.0015 0.62299ZM62.0815 3.61548C62.0815 2.8402 61.6781 2.57451 60.5256 2.57451H59.1714V0.73596H67.7872V2.57451H66.6643C65.5108 2.57451 65.1074 2.84069 65.1074 3.61548V15.5122L61.7353 15.4855L50.8146 5.1442V12.6545C50.8146 13.408 51.218 13.6955 52.3705 13.6955H53.8696V15.5122H44.9217V13.6955H46.4044C47.5569 13.6955 47.9603 13.4075 47.9603 12.6545V3.61548C47.9603 2.8402 47.5569 2.57451 46.4044 2.57451H44.9217V0.73596H52.658L62.0349 9.52481L62.0815 3.61548ZM33.1753 0.0460205C26.3089 0.0460205 22.0107 3.08166 22.0107 7.95487C22.0107 12.7408 26.2492 15.7532 32.9659 15.7532C40.0999 15.7532 44.2497 12.7849 44.2497 7.71147C44.2502 3.14808 39.7722 0.0460205 33.1753 0.0460205ZM33.0192 13.8264C29.2185 13.8264 27.0337 11.6329 27.0337 7.84432C27.0337 4.14493 29.3135 1.95148 33.2092 1.95148C36.9465 1.95148 39.1312 4.18954 39.1312 7.99996C39.1312 11.7217 36.9145 13.8264 33.0192 13.8264Z" fill="#DADEE6"/>
</svg>
