<svg width="18" height="22" viewBox="0 0 18 22" fill="none" xmlns="http://www.w3.org/2000/svg">
<path fill-rule="evenodd" clip-rule="evenodd" d="M15.4425 0H5.4425C4.3425 0 3.4425 0.9 3.4425 2V4C3.4425 4.55 3.8925 5 4.4425 5C4.9925 5 5.4425 4.55 5.4425 4V3H15.4425V19H5.4425V18C5.4425 17.45 4.9925 17 4.4425 17C3.8925 17 3.4425 17.45 3.4425 18V20C3.4425 21.1 4.3425 22 5.4425 22H15.4425C16.5425 22 17.4425 21.1 17.4425 20V2C17.4425 0.9 16.5425 0 15.4425 0ZM3.4525 12.47L1.5325 10.55C1.1825 10.2 0.6125 10.2 0.2625 10.55C-0.0875 10.9 -0.0875 11.47 0.2625 11.82L2.7325 14.29C3.1225 14.68 3.7525 14.68 4.1425 14.29L9.9925 8.44C10.3425 8.09 10.3425 7.52 9.9925 7.17C9.6425 6.82 9.0725 6.82 8.7225 7.17L3.4525 12.47Z" fill="#C3CAD9"/>
</svg>
