<svg width="20" height="19" viewBox="0 0 20 19" fill="none" xmlns="http://www.w3.org/2000/svg">
<path fill-rule="evenodd" clip-rule="evenodd" d="M5 11.0025C3.34 11.0025 2 12.3425 2 14.0025C2 15.3125 0.84 16.0025 0 16.0025C0.92 17.2225 2.49 18.0025 4 18.0025C6.21 18.0025 8 16.2125 8 14.0025C8 12.3425 6.66 11.0025 5 11.0025ZM18.71 1.63249L17.37 0.292486C17.1832 0.105233 16.9295 0 16.665 0C16.4005 0 16.1468 0.105233 15.96 0.292486L7 9.25249L9.75 12.0025L18.71 3.04249C19.1 2.65249 19.1 2.02249 18.71 1.63249Z" fill="#2EE6CA"/>
<mask id="mask0_14_273" style="mask-type:alpha" maskUnits="userSpaceOnUse" x="0" y="0" width="20" height="19">
<path fill-rule="evenodd" clip-rule="evenodd" d="M5 11.0025C3.34 11.0025 2 12.3425 2 14.0025C2 15.3125 0.84 16.0025 0 16.0025C0.92 17.2225 2.49 18.0025 4 18.0025C6.21 18.0025 8 16.2125 8 14.0025C8 12.3425 6.66 11.0025 5 11.0025ZM18.71 1.63249L17.37 0.292486C17.1832 0.105233 16.9295 0 16.665 0C16.4005 0 16.1468 0.105233 15.96 0.292486L7 9.25249L9.75 12.0025L18.71 3.04249C19.1 2.65249 19.1 2.02249 18.71 1.63249Z" fill="white"/>
</mask>
<g mask="url(#mask0_14_273)">
</g>
</svg>
