<svg width="22" height="18" viewBox="0 0 22 18" fill="none" xmlns="http://www.w3.org/2000/svg">
<path fill-rule="evenodd" clip-rule="evenodd" d="M20 0H2C0.9 0 0 0.9 0 2V14C0 15.1 0.9 16 2 16H7V17C7 17.55 7.45 18 8 18H14C14.55 18 15 17.55 15 17V16H20C21.1 16 22 15.1 22 14V2C22 0.9 21.1 0 20 0ZM19 14H3C2.45 14 2 13.55 2 13V3C2 2.45 2.45 2 3 2H19C19.55 2 20 2.45 20 3V13C20 13.55 19.55 14 19 14ZM17 5H8C7.45 5 7 5.45 7 6C7 6.55 7.45 7 8 7H17C17.55 7 18 6.55 18 6C18 5.45 17.55 5 17 5ZM17 9H8C7.45 9 7 9.45 7 10C7 10.55 7.45 11 8 11H17C17.55 11 18 10.55 18 10C18 9.45 17.55 9 17 9ZM6 5H4V7H6V5ZM6 9H4V11H6V9Z" fill="white"/>
<mask id="mask0_14_421" style="mask-type:alpha" maskUnits="userSpaceOnUse" x="0" y="0" width="22" height="18">
<path fill-rule="evenodd" clip-rule="evenodd" d="M20 0H2C0.9 0 0 0.9 0 2V14C0 15.1 0.9 16 2 16H7V17C7 17.55 7.45 18 8 18H14C14.55 18 15 17.55 15 17V16H20C21.1 16 22 15.1 22 14V2C22 0.9 21.1 0 20 0ZM19 14H3C2.45 14 2 13.55 2 13V3C2 2.45 2.45 2 3 2H19C19.55 2 20 2.45 20 3V13C20 13.55 19.55 14 19 14ZM17 5H8C7.45 5 7 5.45 7 6C7 6.55 7.45 7 8 7H17C17.55 7 18 6.55 18 6C18 5.45 17.55 5 17 5ZM17 9H8C7.45 9 7 9.45 7 10C7 10.55 7.45 11 8 11H17C17.55 11 18 10.55 18 10C18 9.45 17.55 9 17 9ZM6 5H4V7H6V5ZM6 9H4V11H6V9Z" fill="white"/>
</mask>
<g mask="url(#mask0_14_421)">
</g>
</svg>
