<svg width="21" height="18" viewBox="0 0 21 18" fill="none" xmlns="http://www.w3.org/2000/svg">
<path fill-rule="evenodd" clip-rule="evenodd" d="M11.3536 17.1307C10.5936 17.8207 9.42357 17.8207 8.66357 17.1207L8.55357 17.0207C3.30357 12.2707 -0.126429 9.16065 0.00357106 5.28065C0.0635711 3.58065 0.933571 1.95065 2.34357 0.990654C4.98357 -0.809346 8.24357 0.0306542 10.0036 2.09065C11.7636 0.0306542 15.0236 -0.819346 17.6636 0.990654C19.0736 1.95065 19.9436 3.58065 20.0036 5.28065C20.1436 9.16065 16.7036 12.2707 11.4536 17.0407L11.3536 17.1307Z" fill="#8833FF"/>
<mask id="mask0_14_225" style="mask-type:alpha" maskUnits="userSpaceOnUse" x="0" y="0" width="21" height="18">
<path fill-rule="evenodd" clip-rule="evenodd" d="M11.3536 17.1307C10.5936 17.8207 9.42357 17.8207 8.66357 17.1207L8.55357 17.0207C3.30357 12.2707 -0.126429 9.16065 0.00357106 5.28065C0.0635711 3.58065 0.933571 1.95065 2.34357 0.990654C4.98357 -0.809346 8.24357 0.0306542 10.0036 2.09065C11.7636 0.0306542 15.0236 -0.819346 17.6636 0.990654C19.0736 1.95065 19.9436 3.58065 20.0036 5.28065C20.1436 9.16065 16.7036 12.2707 11.4536 17.0407L11.3536 17.1307Z" fill="white"/>
</mask>
<g mask="url(#mask0_14_225)">
</g>
</svg>
