<svg width="19" height="14" viewBox="0 0 19 14" fill="none" xmlns="http://www.w3.org/2000/svg">
<path fill-rule="evenodd" clip-rule="evenodd" d="M11 0H1C0.45 0 0 0.45 0 1C0 1.55 0.45 2 1 2H11C11.55 2 12 1.55 12 1C12 0.45 11.55 0 11 0ZM11 4H1C0.45 4 0 4.45 0 5C0 5.55 0.45 6 1 6H11C11.55 6 12 5.55 12 5C12 4.45 11.55 4 11 4ZM1 10H7C7.55 10 8 9.55 8 9C8 8.45 7.55 8 7 8H1C0.45 8 0 8.45 0 9C0 9.55 0.45 10 1 10ZM16 0C14.9 0 14 0.9 14 2V8.18C13.69 8.07 13.35 8 13 8C11.16 8 9.72 9.64 10.05 11.54C10.26 12.75 11.25 13.74 12.46 13.95C14.36 14.28 16 12.84 16 11V2H18C18.55 2 19 1.55 19 1C19 0.45 18.55 0 18 0H16Z" fill="#29CC39"/>
<mask id="mask0_14_209" style="mask-type:alpha" maskUnits="userSpaceOnUse" x="0" y="0" width="19" height="14">
<path fill-rule="evenodd" clip-rule="evenodd" d="M11 0H1C0.45 0 0 0.45 0 1C0 1.55 0.45 2 1 2H11C11.55 2 12 1.55 12 1C12 0.45 11.55 0 11 0ZM11 4H1C0.45 4 0 4.45 0 5C0 5.55 0.45 6 1 6H11C11.55 6 12 5.55 12 5C12 4.45 11.55 4 11 4ZM1 10H7C7.55 10 8 9.55 8 9C8 8.45 7.55 8 7 8H1C0.45 8 0 8.45 0 9C0 9.55 0.45 10 1 10ZM16 0C14.9 0 14 0.9 14 2V8.18C13.69 8.07 13.35 8 13 8C11.16 8 9.72 9.64 10.05 11.54C10.26 12.75 11.25 13.74 12.46 13.95C14.36 14.28 16 12.84 16 11V2H18C18.55 2 19 1.55 19 1C19 0.45 18.55 0 18 0H16Z" fill="white"/>
</mask>
<g mask="url(#mask0_14_209)">
</g>
</svg>
