<svg width="15" height="15" viewBox="0 0 15 15" fill="none" xmlns="http://www.w3.org/2000/svg">
<path fill-rule="evenodd" clip-rule="evenodd" d="M13.5058 5.39796L9.47246 5.04796L7.89746 1.33962C7.61413 0.664624 6.64746 0.664624 6.36413 1.33962L4.78913 5.05629L0.764131 5.39796C0.0307978 5.45629 -0.269202 6.37296 0.289131 6.85629L3.34746 9.50629L2.4308 13.4396C2.26413 14.1563 3.03913 14.723 3.67246 14.3396L7.1308 12.2563L10.5891 14.348C11.2225 14.7313 11.9975 14.1646 11.8308 13.448L10.9141 9.50629L13.9725 6.85629C14.5308 6.37296 14.2391 5.45629 13.5058 5.39796ZM7.1308 10.698V2.94796L8.5558 6.31462L12.2058 6.63129L9.43913 9.03129L10.2725 12.598L7.1308 10.698Z" fill="#FFCB33"/>
</svg>
